<svg fill="#6fc1ff" xmlns="http://www.w3.org/2000/svg" xmlns:xlink="http://www.w3.org/1999/xlink" version="1.1" x="0px" y="0px" viewBox="0 0 100 100" style="enable-background:new 0 0 100 100;" xml:space="preserve"><g><path d="M84.8212891,58.9287109H70.0161133l-2.4765625-3.4970703l-1.8526611-2.7493896C67.8482056,49.5202637,69,45.8470459,69,42   c0-9.0338745-6.265625-16.6928101-15-18.548584V21h2c0.5522461,0,1-0.4477539,1-1v-5c0-0.5522461-0.4477539-1-1-1H44   c-0.5522461,0-1,0.4477539-1,1v5c0,0.5522461,0.4477539,1,1,1h2v2.4515991C37.2622681,25.3114014,31,32.9686279,31,42   c0,2.0726929,0.3416748,4.0813599,0.9864502,6H26c-0.4677734,0-0.8730469,0.3242188-0.9755859,0.7807617l-2.2838135,10.1479492H11   c-0.5522461,0-1,0.4477539-1,1v13.9282227c0,0.4301758,0.2753906,0.8125,0.6835938,0.9487305l7.7105103,2.5706177   C18.7703857,82.1934814,22.8021851,86,27.7143555,86c4.8216553,0,8.8007813-3.6660156,9.3016968-8.3569336h25.9666748   c0.2463989,2.291687,1.331543,4.4212646,3.0470581,5.940918c0.5200195,0.4887695,1.0830078,0.8969727,1.715332,1.2446289   C69.1181641,85.5952148,70.6879883,86,72.2856445,86c4.0761719,0,7.6601563-2.6123047,8.9223633-6.512207   c0.1878052-0.6060181,0.2924805-1.2240601,0.3587036-1.8447266H89c0.5522461,0,1-0.4477539,1-1V64.1069336   C90,61.2514648,87.6767578,58.9287109,84.8212891,58.9287109z M88,68.6787109h-3.953125l-1.7856445-3.5717773H88V68.6787109z    M67.5653687,58.9287109H45.4287109V50H59.75h1.7177734l4.4262695,6.5683594L67.5653687,58.9287109z M40.7855835,48   c-0.0354004-0.0540771-0.072876-0.1070557-0.1072388-0.1617432c-0.0657959-0.1045532-0.1290283-0.2103271-0.19104-0.3167114   c-0.0775146-0.1330566-0.1523438-0.2674561-0.223999-0.4032593c-0.0566406-0.1072998-0.1118164-0.215271-0.1647339-0.3242188   c-0.067749-0.1395874-0.1315918-0.2808228-0.1932373-0.4229736c-0.0473022-0.1091309-0.0943604-0.2184448-0.1380005-0.3290405   c-0.0578003-0.1463623-0.1104736-0.2945557-0.1618652-0.4432983c-0.0380859-0.1101685-0.0769043-0.2200928-0.1113892-0.3314819   c-0.0474854-0.1532593-0.088562-0.3084106-0.1292114-0.4638062c-0.0288086-0.1102295-0.0597534-0.2199097-0.085144-0.3311768   c-0.0372925-0.163269-0.0668945-0.3285522-0.0967407-0.4938354c-0.019043-0.1054688-0.0413818-0.210083-0.057312-0.3162842   c-0.027771-0.1846924-0.0463867-0.37146-0.0648193-0.5581665c-0.0088501-0.0891724-0.0220947-0.1773682-0.0287476-0.2669678   C39.0114746,42.5598145,39,42.2807617,39,42c0-0.4897461,0.0404053-0.9719849,0.102356-1.4487305   c0.0096436-0.0739136,0.0163574-0.1484375,0.0274048-0.2219849c0.0682373-0.4529419,0.166748-0.8980103,0.2901001-1.335144   c0.0232544-0.0823364,0.0480957-0.1640625,0.0732422-0.2457275c0.1349487-0.4381104,0.2929077-0.8686523,0.482666-1.2866211   c0.0239258-0.0527954,0.052063-0.1037598,0.0768433-0.1561279c0.1972046-0.4164429,0.4186401-0.8226929,0.6696777-1.2148438   c0.0122681-0.019104,0.022583-0.0392456,0.0349731-0.0582886l8.6260376,6.7545776   c0.0839233,0.0657349,0.1768799,0.112854,0.2735596,0.1483765c0.0296631,0.0108643,0.0600586,0.0145264,0.0904541,0.022522   c0.0690918,0.0182495,0.1379395,0.0316162,0.2091064,0.034729C49.9711914,42.9934082,49.9852295,43,50,43   c0.0150146,0,0.0290527-0.0095215,0.0440674-0.0101929c0.1343994-0.0059204,0.2684937-0.0296021,0.3939209-0.0908813   C50.7817383,42.7314453,51,42.3823242,51,42V31.0506592c0.0214233,0.0019531,0.0435791,0.0012207,0.0650024,0.0032959   c0.140564,0.0135498,0.2774048,0.0389404,0.4163818,0.0578003c0.217041,0.0294189,0.4346924,0.0571899,0.647583,0.0991211   c0.1463013,0.0288086,0.2886963,0.0679932,0.4328613,0.1026001c0.1998901,0.0479126,0.4001465,0.0948486,0.5957031,0.1535645   c0.1462402,0.0439453,0.2885132,0.0966797,0.4321289,0.1464844c0.1868896,0.0648193,0.3737183,0.1293945,0.5559082,0.2038574   c0.1429443,0.0584106,0.2819824,0.1239624,0.421814,0.1881714c0.1755371,0.0805054,0.3504639,0.1619263,0.520874,0.2513428   c0.1374512,0.0720825,0.2713013,0.1498413,0.4052124,0.227478c0.1644897,0.0953369,0.3276978,0.1925049,0.4866943,0.2959595   c0.1303711,0.0848389,0.2575684,0.1740112,0.3840332,0.2641602c0.1536255,0.1094971,0.3050537,0.2216797,0.4526978,0.3387451   c0.1217651,0.0965576,0.2409668,0.196106,0.3585205,0.2976074c0.1421509,0.1228027,0.2811279,0.2490845,0.4168091,0.3789063   c0.1124268,0.1074829,0.2228394,0.2167969,0.3306274,0.3289185c0.130249,0.1355591,0.2560425,0.2751465,0.3792725,0.4171753   c0.1016846,0.1171875,0.2023926,0.2350464,0.2991333,0.3565063c0.1175537,0.147583,0.229248,0.2998657,0.3392334,0.4534302   c0.090271,0.1259766,0.180542,0.2518311,0.2655029,0.3816528c0.1043091,0.1593628,0.2011108,0.3237305,0.2971802,0.4886475   c0.0775757,0.1331177,0.1564331,0.2653809,0.2285156,0.4020386c0.0903931,0.1713257,0.1716309,0.3480225,0.2531128,0.5245361   c0.0638428,0.1384277,0.1304932,0.2753296,0.1886597,0.416748c0.0759277,0.1846313,0.1408081,0.3746338,0.2068481,0.5641479   c0.0490723,0.1408691,0.1026001,0.2796021,0.1459961,0.4229736c0.0610962,0.2014771,0.1087646,0.4084473,0.1583862,0.614624   c0.0331421,0.1377563,0.0724487,0.2730713,0.1003418,0.4127808c0.0463257,0.2318115,0.0765991,0.4689941,0.1079712,0.7057495   c0.0158691,0.1195068,0.0396729,0.2364502,0.0516357,0.3571167C60.9802856,41.2666016,61,41.6309814,61,42   c0,0.2807617-0.0114746,0.5598145-0.0321045,0.8370361c-0.0066528,0.0895996-0.0198975,0.1777954-0.0287476,0.2669678   c-0.0184326,0.1867065-0.0370483,0.3734741-0.0648193,0.5581665c-0.0159302,0.1062012-0.038269,0.2108154-0.057312,0.3162842   c-0.0298462,0.1652832-0.0594482,0.3305664-0.0967407,0.4938354c-0.0253906,0.1112671-0.0563354,0.2209473-0.085144,0.3311768   c-0.0406494,0.1553955-0.0817261,0.3105469-0.1292114,0.4638062c-0.0344849,0.1113892-0.0733032,0.2213135-0.1113892,0.3314819   c-0.0513916,0.1487427-0.1040649,0.296936-0.1618652,0.4432983c-0.0436401,0.1105957-0.0906982,0.2199097-0.1380005,0.3290405   c-0.0616455,0.1421509-0.1254883,0.2833862-0.1932373,0.4229736c-0.0529175,0.1089478-0.1080933,0.2169189-0.1647339,0.3242188   c-0.0716553,0.1358032-0.1464844,0.2702026-0.223999,0.4032593c-0.0620117,0.1063843-0.1252441,0.2121582-0.19104,0.3167114   C59.2872925,47.8929443,59.2498169,47.9459229,59.2144165,48H40.7855835z M42.1601563,34.2836914   c0.1318359-0.1411133,0.2729492-0.2724609,0.4042969-0.3959961c0.1601563-0.1416016,0.3203125-0.2832031,0.4819336-0.4160156   c0.1538086-0.1264648,0.3071289-0.2441406,0.4648438-0.3579102c0.1958008-0.1401367,0.3916016-0.2802734,0.590332-0.4067383   c0.3256836-0.2045898,0.6704102-0.390625,1.015625-0.5673828c0.3383789-0.1743164,0.6948242-0.3271484,1.1069336-0.4746094   c0.3354492-0.1269531,0.6708984-0.2255859,1.0336914-0.3188477c0.1264648-0.0336914,0.2607422-0.0678711,0.3955078-0.0932617   c0.0039063-0.0004883,0.1157227-0.0258789,0.1201172-0.0268555c0.0668945-0.0126953,0.144043-0.0288086,0.1035156-0.0239258   c0.1391602-0.0258789,0.277832-0.0522461,0.4448242-0.0737305c0.1107788-0.0170288,0.2223511-0.0318604,0.3398438-0.0456543   c0.0512085-0.0060425,0.1092529-0.0112305,0.1635742-0.0168457C48.8817139,31.0600586,48.9389038,31.0541382,49,31.048645   v8.8981323l-7.0061035-5.4859619c0.0518188-0.0546265,0.0958862-0.1057739,0.1547241-0.1652832   C42.15271,34.2914429,42.1560669,34.2878418,42.1601563,34.2836914z M45,16h10v3h-2h-6h-2V16z M52,21v2.1083984   c-0.0610352-0.0065918-0.1229858-0.0039673-0.184082-0.0099487c-0.5614624-0.0551147-1.1256104-0.0878296-1.69104-0.0916748   C50.0831909,23.0064697,50.041687,23,50,23c-0.0366821,0-0.0731812,0.0057373-0.1098633,0.0059814   c-0.5730591,0.0032959-1.1436157,0.0369263-1.7104492,0.0926514C48.1199951,23.1044922,48.0595703,23.1019287,48,23.1083984V21H52z    M33,42c0-8.3378906,5.9570313-15.3837891,14.1723633-16.7553711c1.3908691-0.2431641,2.833374-0.3039551,4.250061-0.182373   c0.4736938,0.0408325,0.9454956,0.1020508,1.4130249,0.1838379C61.0429688,26.6162109,67,33.6621094,67,42   c0,3.1738281-0.8662109,6.2207031-2.5175781,8.894043l-1.6533203-2.4526367C62.6435547,48.1655273,62.3325195,48,62,48h-0.4604492   c0.0101318-0.0194702,0.0167236-0.0404053,0.0267944-0.0598755c0.2072144-0.4019775,0.3890381-0.8145752,0.552063-1.2344971   c0.0380859-0.0980225,0.0725098-0.1970215,0.1081543-0.2959595c0.142334-0.3951416,0.2686768-0.7956543,0.3717041-1.2036743   c0.0112915-0.0445557,0.026123-0.0878296,0.0369263-0.1325073c0.1068726-0.4429932,0.1841431-0.8938599,0.2440186-1.348877   c0.0142822-0.1081543,0.0261841-0.2164307,0.0377808-0.3251343C62.9661255,42.9369507,63,42.4713135,63,42   c0-7.168457-5.831543-13-13-13c-0.2265625,0-0.4423828,0.0102539-0.6201172,0.0200195   c-0.1855469,0-0.3857422,0.0131836-0.5063477,0.0327148c-0.2856445,0.0219727-0.5703125,0.0551758-0.8276367,0.0952148   c-0.1782227,0.0219727-0.355957,0.0546875-0.5385742,0.0888672c-0.0336914,0.0058594-0.0932617,0.0185547-0.1259766,0.0283203   c-0.0625,0.012207-0.1279297,0.0249023-0.0952148,0.0219727c-0.1845703,0.0341797-0.3706055,0.0800781-0.534668,0.1240234   c-0.4711914,0.1210938-0.8637695,0.2426758-1.2177734,0.3769531c-0.4775391,0.1708984-0.9130859,0.3579102-1.3300781,0.5722656   c-0.3955078,0.203125-0.7910156,0.4174805-1.1713867,0.65625c-0.2348633,0.1499023-0.4589844,0.3095703-0.6884766,0.4731445   c-0.1972656,0.1430664-0.3837891,0.2851563-0.5683594,0.4379883c-0.1777344,0.1459961-0.3564453,0.3032227-0.5708008,0.4936523   c-0.171875,0.1611328-0.3432617,0.3232422-0.4814453,0.4716797c-0.1660156,0.1655273-0.3208008,0.331543-0.4731445,0.5053711   c-0.1611328,0.1826172-0.3222656,0.3764648-0.4873047,0.5844727C37.9555664,36.2880859,37,39.0605469,37,42   c0,0.4713135,0.0338745,0.9369507,0.0830078,1.3994751c0.0115967,0.1087036,0.0234985,0.21698,0.0377808,0.3251343   c0.0598755,0.4550171,0.137146,0.9058838,0.2440186,1.348877c0.0108032,0.0446777,0.0256348,0.0879517,0.0369263,0.1325073   c0.1030273,0.40802,0.2293701,0.8085327,0.3717041,1.2036743c0.0356445,0.098938,0.0700684,0.197937,0.1081543,0.2959595   c0.1630249,0.4199219,0.3448486,0.8325195,0.552063,1.2344971C38.4437256,47.9595947,38.4503174,47.9805298,38.4604492,48H34.09375   C33.3676758,46.0991211,33,44.0839844,33,42z M26.800293,50h6.6196289H40.25h3.1787109v8.9287109H24.7903442L26.800293,50z    M27.7143555,84c-4.0571289,0-7.3574219-3.300293-7.3574219-7.3569336c0-4.0571289,3.300293-7.3574219,7.3574219-7.3574219   c4.0566406,0,7.3569336,3.300293,7.3569336,7.3574219C35.0712891,80.699707,31.7709961,84,27.7143555,84z M79.3017578,78.8837891   C78.3110352,81.9438477,75.4916992,84,72.2856445,84c-1.2749023,0-2.4746094-0.3085938-3.5708008-0.9204102   c-0.4887695-0.269043-0.9194336-0.5810547-1.3374023-0.9731445c-1.5561523-1.3789063-2.4487305-3.3701172-2.4487305-5.4633789   c0-4.0571289,3.300293-7.3574219,7.3569336-7.3574219c0.024231-0.0001221,0.0510254,0.0002441,0.0760498,0.0001831   c0.0783081,0,0.1638184,0.0014648,0.2808838,0.0130005c3.925293,0.1845703,7.0004883,3.4106445,7.0004883,7.3442383   C79.6430664,77.3989258,79.5268555,78.1567383,79.3017578,78.8837891z M81.590332,75.6430664   c-0.0247192-0.2340088-0.0633545-0.4637451-0.1049805-0.6923828c-0.0085449-0.0470581-0.0123901-0.0956421-0.0216064-0.1424561   c-0.0564575-0.2854614-0.1265869-0.5658569-0.208313-0.8414307c-0.026001-0.0877075-0.0599976-0.1716309-0.0884399-0.2582397   c-0.0612793-0.1865234-0.1226196-0.3729248-0.1950684-0.5540771c-0.0415039-0.1037598-0.0906372-0.203186-0.1356812-0.3050537   c-0.0699463-0.1581421-0.1390381-0.3165283-0.2172852-0.4699097c-0.0544434-0.1068115-0.1153564-0.2091675-0.1737671-0.3135376   c-0.0797729-0.1426392-0.1593018-0.2851563-0.2461548-0.4230347c-0.0653687-0.1037598-0.1358643-0.2034302-0.2051392-0.3043823   c-0.0900879-0.1312866-0.180603-0.2617188-0.2770996-0.3880005c-0.0755005-0.0987549-0.1548462-0.1939697-0.2340698-0.2896118   c-0.1000366-0.1207275-0.201355-0.2399292-0.3071899-0.3553467c-0.0845337-0.0922241-0.1716919-0.1813965-0.2598267-0.2701416   c-0.1098022-0.1105347-0.2215576-0.2185669-0.336792-0.3234863c-0.0926514-0.0844116-0.1867676-0.166626-0.2827759-0.2472534   c-0.1192017-0.1001587-0.2410278-0.1966553-0.3652344-0.2907715c-0.0999146-0.0757446-0.2003174-0.1501465-0.3032837-0.2218628   c-0.1287842-0.0895996-0.2605591-0.1743774-0.3939209-0.2575073c-0.1055298-0.0657959-0.2108154-0.1314697-0.3191528-0.1930542   c-0.1384888-0.0787964-0.2805786-0.1511841-0.4234009-0.2229004c-0.1101685-0.0552979-0.2194214-0.1117554-0.3320923-0.1627808   c-0.1490479-0.0674438-0.3019409-0.1269531-0.4550781-0.1865845c-0.1120605-0.0436401-0.2225952-0.0899048-0.336731-0.1292114   c-0.163208-0.0562134-0.3305664-0.1027222-0.4977417-0.1499023c-0.1098022-0.0309448-0.2175903-0.0661621-0.3289185-0.0931396   c-0.1864014-0.045166-0.3770752-0.0783081-0.567688-0.1119385c-0.0966797-0.0170288-0.1911011-0.039978-0.2887573-0.0540161   c-0.289978-0.0415649-0.5838623-0.0709839-0.881897-0.0848999c-0.1601563-0.0180664-0.3383789-0.0205078-0.5166016-0.0205078   c-0.3125,0-0.6210938,0.0167847-0.9258423,0.046875c-0.1015625,0.0100098-0.2000122,0.0297852-0.3005981,0.0430298   c-0.2010498,0.0264893-0.4021606,0.0526123-0.5990601,0.0916748c-0.1184692,0.0235596-0.2332764,0.0562134-0.3500977,0.0841675   c-0.1745605,0.0418091-0.3492432,0.0825195-0.5198975,0.1339722c-0.1221313,0.0368042-0.2404175,0.0813599-0.3603516,0.1229858   c-0.1598511,0.055481-0.3195801,0.1105957-0.4754028,0.1743774c-0.1207886,0.0494385-0.237915,0.1051025-0.3561401,0.1593628   c-0.1487427,0.0682983-0.296875,0.137146-0.4413452,0.2129517c-0.1171265,0.0614624-0.230835,0.1275635-0.3449707,0.1937256   c-0.1386108,0.0803833-0.2757568,0.1621094-0.40979,0.2492676c-0.1115112,0.0725708-0.2201538,0.1483154-0.3283081,0.2254028   c-0.1290894,0.0919189-0.2558594,0.1861572-0.3800049,0.2843628c-0.1044312,0.0825806-0.2064819,0.1672363-0.307251,0.2541504   c-0.1196899,0.1032104-0.236084,0.2094727-0.3503418,0.3184814c-0.0960083,0.0916138-0.1905518,0.184082-0.2826538,0.2796631   c-0.1101074,0.1143188-0.2157593,0.2322388-0.3200073,0.3520508c-0.0866699,0.0995483-0.1729126,0.1989746-0.2553101,0.302124   c-0.0999146,0.125061-0.1940918,0.2542725-0.2875977,0.3843994c-0.076355,0.1062012-0.1535034,0.2114258-0.2254639,0.3208618   c-0.0895386,0.1362305-0.1717529,0.2769775-0.2542114,0.4180298c-0.0650635,0.1112061-0.1322632,0.2207031-0.1928101,0.3347778   c-0.0793457,0.1494751-0.1495972,0.3039551-0.2209473,0.4580688c-0.0518799,0.1121826-0.1075439,0.2220459-0.1550903,0.3365479   c-0.0706177,0.170166-0.130188,0.34552-0.1908569,0.5205078c-0.0363159,0.1047363-0.078064,0.2068481-0.1107788,0.3132935   c-0.0686035,0.2233276-0.1239014,0.4520874-0.1758423,0.6821289c-0.0141602,0.0626831-0.0341187,0.1231079-0.0469971,0.1862793   c-0.0585327,0.2868042-0.104187,0.5782471-0.1357422,0.8739014H37.0180664   c-0.0315552-0.2956543-0.0772095-0.5870972-0.1357422-0.8739014c-0.0128784-0.0631714-0.0328369-0.1235962-0.0469971-0.1862793   c-0.0519409-0.2300415-0.1072388-0.4588013-0.1758423-0.6821289c-0.0327148-0.1064453-0.0744629-0.2085571-0.1107788-0.3132935   c-0.0606689-0.1750488-0.1202393-0.3504028-0.1908569-0.5205688c-0.0473022-0.1139526-0.1027832-0.2233887-0.1544189-0.335083   c-0.0716553-0.1548462-0.1422119-0.3099365-0.2219238-0.460022c-0.0603027-0.1135864-0.1272583-0.2226563-0.1920166-0.3334351   c-0.0826416-0.1412964-0.164978-0.2823486-0.2546997-0.4188232c-0.0719604-0.109436-0.1491089-0.2146606-0.2254639-0.3208618   c-0.0935059-0.130127-0.1876831-0.2593384-0.2875977-0.3843994c-0.0823975-0.1031494-0.1686401-0.2025757-0.2553101-0.302124   c-0.104248-0.119812-0.2098999-0.2377319-0.3200073-0.3520508c-0.0921021-0.0955811-0.1866455-0.1880493-0.2826538-0.2796631   c-0.1142578-0.1090088-0.2306519-0.215271-0.3503418-0.3184814c-0.100769-0.0869141-0.2028198-0.1715698-0.307251-0.2541504   c-0.1241455-0.0982056-0.2509155-0.1924438-0.3800049-0.2843628c-0.1081543-0.0770874-0.2167969-0.152832-0.3283081-0.2254028   c-0.1340332-0.0871582-0.2711792-0.1688843-0.40979-0.2492676c-0.1141357-0.0661621-0.2278442-0.1322632-0.3449707-0.1937256   c-0.1445923-0.0758667-0.2927856-0.1447144-0.4416504-0.2130737c-0.117981-0.0541992-0.2349243-0.1097412-0.3555298-0.1591187   c-0.1560669-0.0639038-0.3161011-0.1190186-0.4761963-0.1746216c-0.119812-0.0415649-0.237915-0.0861206-0.3598633-0.1228638   c-0.1706543-0.0515137-0.3453369-0.0921631-0.5198975-0.1339722c-0.1168213-0.0279541-0.2316284-0.0606079-0.3500977-0.0841675   c-0.1968994-0.0390625-0.3980103-0.0651855-0.5990601-0.0916748c-0.1005859-0.0132446-0.1990356-0.03302-0.3005981-0.0430298   c-0.3047485-0.0300903-0.6133423-0.046875-0.9258423-0.046875c-0.309021,0-0.6139526,0.0169678-0.9154053,0.0463867   c-0.1002808,0.0097656-0.1976929,0.0283813-0.2969971,0.0413208c-0.1994629,0.026001-0.3986816,0.0525513-0.5940552,0.0909424   c-0.1157227,0.0227661-0.2282715,0.0532227-0.3424072,0.0802002c-0.1746216,0.0412598-0.3486938,0.0829468-0.5194092,0.1338501   c-0.1183472,0.0352783-0.2336426,0.076416-0.3499756,0.1162109c-0.1618042,0.0553589-0.3225098,0.1122437-0.4802246,0.1761475   c-0.1158447,0.046875-0.229126,0.0977173-0.3425903,0.1490479c-0.1524048,0.0689697-0.3027954,0.140686-0.4507446,0.2174683   c-0.1107788,0.0574951-0.2198486,0.1170044-0.3280029,0.1787109c-0.1446533,0.0825195-0.2861328,0.1690674-0.4258423,0.2589722   c-0.1035767,0.0666504-0.2063599,0.133667-0.3070068,0.2042236c-0.1378174,0.0965576-0.2713013,0.1982422-0.4035645,0.3019409   c-0.0944824,0.0740356-0.1894531,0.1469116-0.2809448,0.2244263c-0.1322632,0.1120605-0.2585449,0.2302856-0.3843994,0.3494263   c-0.0829468,0.0785522-0.1679077,0.1546631-0.2479248,0.236084c-0.131897,0.1342773-0.2559814,0.2756958-0.3796997,0.4176636   c-0.0647583,0.0743408-0.1331787,0.1452637-0.1956787,0.2216797c-0.15802,0.1932373-0.3063965,0.3942261-0.4488525,0.5997925   c-0.0214844,0.0310059-0.0460205,0.0596924-0.0671387,0.0909424c-0.1613159,0.2389526-0.3109741,0.486145-0.4501343,0.7400513   c-0.0410156,0.0748901-0.0750732,0.1538696-0.1141357,0.2300415c-0.0930786,0.1814575-0.1848145,0.3635254-0.2661133,0.5515747   c-0.0437622,0.1011353-0.0801392,0.2058105-0.1203613,0.3087769c-0.0661621,0.1692505-0.1314697,0.338562-0.1878662,0.5123291   c-0.0369263,0.1136475-0.0672607,0.2297363-0.0998535,0.3452759c-0.0476074,0.1688232-0.0934448,0.3381348-0.1316528,0.5106812   c-0.0269775,0.1218262-0.0488892,0.2451172-0.0710449,0.3686523c-0.0180054,0.1003418-0.0429688,0.1982422-0.0577393,0.2996216   L12,73.1362305V60.9287109h11.5336304c0.0022583,0,0.0041504,0.0014648,0.0064087,0.0014648H69.5   c0.0036011,0,0.006958-0.0014038,0.0105591-0.0014648h15.31073c1.4013672,0,2.5800781,0.9172974,3.0018921,2.1782227h-7.1801147   c-0.3466797,0-0.668457,0.1796875-0.8505859,0.4741211c-0.1821289,0.2949219-0.1987305,0.6630859-0.0439453,0.9731445   l2.7856445,5.5717773c0.1694336,0.3388672,0.515625,0.5527344,0.8945313,0.5527344H88v4.9643555H81.590332z"></path><path d="M54.1787109,63.1069336h-5.5717773c-0.5522461,0-1,0.4477539-1,1s0.4477539,1,1,1h5.5717773c0.5522461,0,1-0.4477539,1-1   S54.730957,63.1069336,54.1787109,63.1069336z"></path></g></svg>